<svg xmlns="http://www.w3.org/2000/svg" id="board" viewBox="0 0 800 600">
 <g transform="translate(0 -452.36)">
  <g stroke-linejoin="round" transform="matrix(1.0826 0 0 .81259 15.665 73.774)" stroke="#543624" stroke-linecap="round" stroke-width="2">
   <path d="m250 511.74v40.415l-35 20.207-35-20.207v-40.415l35-20.207z" fill="#a76c49"/>
   <path d="m320 511.74v40.415l-35 20.207-35-20.207v-40.415l35-20.207z" fill="#bf8c6d"/>
   <path d="m390 511.74v40.415l-35 20.207-35-20.207v-40.415l35-20.207z" fill="#7d5137"/>
   <path d="m460 511.74v40.415l-35 20.207-35-20.207v-40.415l35-20.207z" fill="#a76c49"/>
   <path d="m530 511.74v40.415l-35 20.207-35-20.207v-40.415l35-20.207z" fill="#bf8c6d"/>
   <path d="m215 572.37v40.415l-35 20.207-35-20.207v-40.415l35-20.207z" fill="#bf8c6d"/>
   <path d="m285 572.37v40.415l-35 20.207-35-20.207v-40.415l35-20.207z" fill="#7d5137"/>
   <path d="m355 572.37v40.415l-35 20.207-35-20.207v-40.415l35-20.207z" fill="#a76c49"/>
   <path d="m425 572.37v40.415l-35 20.207-35-20.207v-40.415l35-20.207z" fill="#bf8c6d"/>
   <path d="m495 572.37v40.415l-35 20.207-35-20.207v-40.415l35-20.207z" fill="#7d5137"/>
   <path d="m565 572.37v40.415l-35 20.207-35-20.207v-40.415l35-20.207z" fill="#a76c49"/>
   <path d="m180 633v40.415l-35 20.207-35-20.207v-40.415l35-20.207z" fill="#7d5137"/>
   <path d="m250 633v40.415l-35 20.207-35-20.207v-40.415l35-20.207z" fill="#a76c49"/>
   <path d="m320 633v40.415l-35 20.207-35-20.207v-40.415l35-20.207z" fill="#bf8c6d"/>
   <path d="m390 633v40.415l-35 20.207-35-20.207v-40.415l35-20.207z" fill="#7d5137"/>
   <path d="m460 633v40.415l-35 20.207-35-20.207v-40.415l35-20.207z" fill="#a76c49"/>
   <path d="m530 633v40.415l-35 20.207-35-20.207v-40.415l35-20.207z" fill="#bf8c6d"/>
   <path d="m600 633v40.415l-35 20.207-35-20.207v-40.415l35-20.207z" fill="#7d5137"/>
   <path d="m145 693.63v40.415l-35 20.207-35-20.207v-40.415l35-20.2z" fill="#a76c49"/>
   <path d="m215 693.63v40.415l-35 20.207-35-20.207v-40.415l35-20.207z" fill="#bf8c6d"/>
   <path d="m285 693.63v40.415l-35 20.207-35-20.207v-40.415l35-20.207z" fill="#7d5137"/>
   <path d="m355 693.63v40.415l-35 20.207-35-20.207v-40.415l35-20.207z" fill="#a76c49"/>
   <path d="m425 693.63v40.415l-35 20.207-35-20.207v-40.415l35-20.207z" fill="#bf8c6d"/>
   <path d="m495 693.63v40.415l-35 20.207-35-20.207v-40.415l35-20.207z" fill="#7d5137"/>
   <path d="m565 693.63v40.415l-35 20.207-35-20.207v-40.415l35-20.207z" fill="#a76c49"/>
   <path d="m635 693.63v40.415l-35 20.207-35-20.207v-40.415l35-20.207z" fill="#bf8c6d"/>
   <path d="m110 754.26v40.415l-35 20.207-35-20.207v-40.415l35-20.21z" fill="#bf8c6d"/>
   <path d="m180 754.26v40.415l-35 20.207-35-20.207v-40.415l35-20.207z" fill="#7d5137"/>
   <path d="m250 754.26v40.415l-35 20.207-35-20.207v-40.415l35-20.207z" fill="#a76c49"/>
   <path d="m320 754.26v40.415l-35 20.207-35-20.207v-40.415l35-20.207z" fill="#bf8c6d"/>
   <path d="m390 754.26v40.415l-35 20.207-35-20.207v-40.415l35-20.207z" fill="#7d5137"/>
   <path d="m460 754.26v40.415l-35 20.207-35-20.207v-40.415l35-20.207z" fill="#a76c49"/>
   <path d="m530 754.26v40.415l-35 20.207-35-20.207v-40.415l35-20.207z" fill="#bf8c6d"/>
   <path d="m600 754.26v40.415l-35 20.207-35-20.207v-40.415l35-20.207z" fill="#7d5137"/>
   <path d="m670 754.26v40.415l-35 20.207-35-20.207v-40.415l35-20.207z" fill="#a76c49"/>
   <path d="m75 814.89v40.415l-35 20.21-35-20.21v-40.41l35-20.21z" fill="#7d5137"/>
   <path d="m145 814.89v40.415l-35 20.207-35-20.207v-40.415l35-20.207z" fill="#a76c49"/>
   <path d="m215 814.89v40.415l-35 20.207-35-20.207v-40.415l35-20.207z" fill="#bf8c6d"/>
   <path d="m285 814.89v40.415l-35 20.207-35-20.207v-40.415l35-20.207z" fill="#7d5137"/>
   <path d="m355 814.89v40.415l-35 20.207-35-20.207v-40.415l35-20.207z" fill="#a76c49"/>
   <path d="m425 814.89v40.415l-35 20.207-35-20.207v-40.415l35-20.207z" fill="#bf8c6d"/>
   <path d="m495 814.89v40.415l-35 20.207-35-20.207v-40.415l35-20.207z" fill="#7d5137"/>
   <path d="m565 814.89v40.415l-35 20.207-35-20.207v-40.415l35-20.207z" fill="#a76c49"/>
   <path d="m635 814.89v40.415l-35 20.207-35-20.207v-40.415l35-20.207z" fill="#bf8c6d"/>
   <path d="m705 814.89v40.415l-35 20.207-35-20.207v-40.415l35-20.207z" fill="#7d5137"/>
   <path d="m110 875.51v40.415l-35 20.207-35-20.207v-40.415l35-20.19z" fill="#bf8c6d"/>
   <path d="m180 875.51v40.415l-35 20.207-35-20.207v-40.415l35-20.207z" fill="#7d5137"/>
   <path d="m250 875.51v40.415l-35 20.207-35-20.207v-40.415l35-20.207z" fill="#a76c49"/>
   <path d="m320 875.51v40.415l-35 20.207-35-20.207v-40.415l35-20.207z" fill="#bf8c6d"/>
   <path d="m390 875.51v40.415l-35 20.207-35-20.207v-40.415l35-20.207z" fill="#7d5137"/>
   <path d="m460 875.51v40.415l-35 20.207-35-20.207v-40.415l35-20.207z" fill="#a76c49"/>
   <path d="m530 875.51v40.415l-35 20.207-35-20.207v-40.415l35-20.207z" fill="#bf8c6d"/>
   <path d="m600 875.51v40.415l-35 20.207-35-20.207v-40.415l35-20.207z" fill="#7d5137"/>
   <path d="m670 875.51v40.415l-35 20.207-35-20.207v-40.415l35-20.207z" fill="#a76c49"/>
   <path d="m145 936.14v40.415l-35 20.207-35-20.207v-40.415l35-20.2z" fill="#a76c49"/>
   <path d="m215 936.14v40.415l-35 20.207-35-20.207v-40.415l35-20.207z" fill="#bf8c6d"/>
   <path d="m285 936.14v40.415l-35 20.207-35-20.207v-40.415l35-20.207z" fill="#7d5137"/>
   <path d="m355 936.14v40.415l-35 20.207-35-20.207v-40.415l35-20.207z" fill="#a76c49"/>
   <path d="m425 936.14v40.415l-35 20.207-35-20.207v-40.415l35-20.207z" fill="#bf8c6d"/>
   <path d="m495 936.14v40.415l-35 20.207-35-20.207v-40.415l35-20.207z" fill="#7d5137"/>
   <path d="m565 936.14v40.415l-35 20.207-35-20.207v-40.415l35-20.207z" fill="#a76c49"/>
   <path d="m635 936.14v40.415l-35 20.207-35-20.207v-40.415l35-20.207z" fill="#bf8c6d"/>
   <path d="m180 996.77v40.414l-35 20.207-35-20.207v-40.414l35-20.207z" fill="#7d5137"/>
   <path d="m250 996.77v40.414l-35 20.207-35-20.207v-40.414l35-20.207z" fill="#a76c49"/>
   <path d="m320 996.77v40.414l-35 20.207-35-20.207v-40.414l35-20.207z" fill="#bf8c6d"/>
   <path d="m390 996.77v40.414l-35 20.207-35-20.207v-40.414l35-20.207z" fill="#7d5137"/>
   <path d="m460 996.77v40.414l-35 20.207-35-20.207v-40.414l35-20.207z" fill="#a76c49"/>
   <path d="m530 996.77v40.414l-35 20.207-35-20.207v-40.414l35-20.207z" fill="#bf8c6d"/>
   <path d="m600 996.77v40.414l-35 20.207-35-20.207v-40.414l35-20.207z" fill="#7d5137"/>
   <path d="m215 1057.4v40.414l-35 20.207-35-20.207v-40.414l35-20.207z" fill="#bf8c6d"/>
   <path d="m285 1057.4v40.414l-35 20.207-35-20.207v-40.414l35-20.207z" fill="#7d5137"/>
   <path d="m355 1057.4v40.414l-35 20.207-35-20.207v-40.414l35-20.207z" fill="#a76c49"/>
   <path d="m425 1057.4v40.414l-35 20.207-35-20.207v-40.414l35-20.207z" fill="#bf8c6d"/>
   <path d="m495 1057.4v40.414l-35 20.207-35-20.207v-40.414l35-20.207z" fill="#7d5137"/>
   <path d="m565 1057.4v40.414l-35 20.207-35-20.207v-40.414l35-20.207z" fill="#a76c49"/>
   <path d="m250 1118v40.414l-35 20.207-35-20.207v-40.414l35-20.207z" fill="#a76c49"/>
   <path d="m320 1118v40.414l-35 20.207-35-20.207v-40.414l35-20.207z" fill="#bf8c6d"/>
   <path d="m390 1118v40.414l-35 20.207-35-20.207v-40.414l35-20.207z" fill="#7d5137"/>
   <path d="m460 1118v40.414l-35 20.207-35-20.207v-40.414l35-20.207z" fill="#a76c49"/>
   <path d="m530 1118v40.414l-35 20.207-35-20.207v-40.414l35-20.207z" fill="#bf8c6d"/>
  </g>
 </g>
</svg>
